<svg version="1.1" id="Layer_1" xmlns="http://www.w3.org/2000/svg" xmlns:xlink="http://www.w3.org/1999/xlink" x="0px" y="0px"
	 width="100%" viewBox="0 0 216 210" enable-background="new 0 0 216 210" xml:space="preserve">
<path fill="#FFFFFF" opacity="1.000000" stroke="none" 
	d="
M217.000000,75.000000 
	C217.000000,120.666664 217.000000,165.833328 217.000000,211.000000 
	C145.000000,211.000000 73.000000,211.000000 1.000000,211.000000 
	C1.000000,141.000000 1.000000,71.000000 1.000000,1.000000 
	C73.000000,1.000000 145.000000,1.000000 217.000000,1.000000 
	C217.000000,25.500000 217.000000,50.000000 217.000000,75.000000 
M45.384083,185.120499 
	C81.331619,213.969650 133.503479,214.531662 169.924683,186.240616 
	C193.317368,168.069778 206.978500,144.100647 209.689133,114.614601 
	C211.619186,93.619682 207.378906,73.535416 196.494064,55.167431 
	C178.528885,24.851450 151.922745,7.651350 116.949722,4.259092 
	C94.983002,2.128399 74.200005,7.067703 55.409180,18.918842 
	C27.696379,36.396969 10.675717,61.454910 7.390640,94.005058 
	C3.720315,130.372406 16.556168,160.993408 45.384083,185.120499 
z"/>
<path fill="#B8B8B8" opacity="1.000000" stroke="none" 
	d="
M45.080994,184.935562 
	C16.556168,160.993408 3.720315,130.372406 7.390640,94.005058 
	C10.675717,61.454910 27.696379,36.396969 55.409180,18.918842 
	C74.200005,7.067703 94.983002,2.128399 116.949722,4.259092 
	C151.922745,7.651350 178.528885,24.851450 196.494064,55.167431 
	C207.378906,73.535416 211.619186,93.619682 209.689133,114.614601 
	C206.978500,144.100647 193.317368,168.069778 169.924683,186.240616 
	C133.503479,214.531662 81.331619,213.969650 45.080994,184.935562 
M41.999889,34.470703 
	C37.929516,39.075314 33.428051,43.370541 29.863094,48.337883 
	C14.092276,70.312614 8.658267,94.669975 12.772013,121.499512 
	C18.361349,157.952759 46.895664,190.194290 82.439217,199.109085 
	C108.575302,205.664352 133.736954,203.171021 157.125320,189.433151 
	C185.063995,173.022491 201.617630,148.303772 204.760849,116.183533 
	C208.052841,82.542961 197.097076,53.547886 170.855896,31.240658 
	C148.738922,12.439367 122.815613,5.843189 94.490585,9.426637 
	C74.748711,11.924215 57.351738,20.530836 41.999889,34.470703 
z"/>
<path fill="#FFFFFF" opacity="1.000000" stroke="none" 
	d="
M42.253098,34.222435 
	C57.351738,20.530836 74.748711,11.924215 94.490585,9.426637 
	C122.815613,5.843189 148.738922,12.439367 170.855896,31.240658 
	C197.097076,53.547886 208.052841,82.542961 204.760849,116.183533 
	C201.617630,148.303772 185.063995,173.022491 157.125320,189.433151 
	C133.736954,203.171021 108.575302,205.664352 82.439217,199.109085 
	C46.895664,190.194290 18.361349,157.952759 12.772013,121.499512 
	C8.658267,94.669975 14.092276,70.312614 29.863094,48.337883 
	C33.428051,43.370541 37.929516,39.075314 42.253098,34.222435 
z"/>
</svg>