<svg width="24" height="25" viewBox="0 0 24 25" fill="none" xmlns="http://www.w3.org/2000/svg">
<path d="M5.856 7.34C5.74176 7.27839 5.61348 7.24748 5.48371 7.2503C5.35395 7.25312 5.22713 7.28957 5.11567 7.35608C5.00421 7.42259 4.91192 7.51689 4.84782 7.62976C4.78373 7.74263 4.75002 7.8702 4.75 8V17.5C4.75 17.6989 4.82902 17.8897 4.96967 18.0303C5.11032 18.171 5.30109 18.25 5.5 18.25C5.69891 18.25 5.88968 18.171 6.03033 18.0303C6.17098 17.8897 6.25 17.6989 6.25 17.5V9.256L11.644 12.16C11.866 12.28 12.134 12.28 12.356 12.16L17.75 9.256V17.5C17.75 17.6989 17.829 17.8897 17.9697 18.0303C18.1103 18.171 18.3011 18.25 18.5 18.25C18.6989 18.25 18.8897 18.171 19.0303 18.0303C19.171 17.8897 19.25 17.6989 19.25 17.5V8C19.25 7.8702 19.2163 7.74263 19.1522 7.62976C19.0881 7.51689 18.9958 7.42259 18.8843 7.35608C18.7729 7.28957 18.6461 7.25312 18.5163 7.2503C18.3865 7.24748 18.2582 7.27839 18.144 7.34L12 10.648L5.856 7.34Z" fill="#736F6E"/>
<path fill-rule="evenodd" clip-rule="evenodd" d="M17.31 4.222C13.777 3.90614 10.223 3.90614 6.69 4.222L5.172 4.357C4.38129 4.4276 3.63746 4.76268 3.06064 5.3081C2.48382 5.85353 2.1077 6.57747 1.993 7.363C1.49493 10.7696 1.49493 14.2304 1.993 17.637C2.10794 18.4225 2.48431 19.1463 3.06131 19.6916C3.63831 20.2368 4.38226 20.5716 5.173 20.642L6.689 20.778C10.223 21.094 13.777 21.094 17.311 20.778L18.828 20.642C19.6186 20.5714 20.3623 20.2365 20.9391 19.6913C21.5159 19.146 21.8921 18.4223 22.007 17.637C22.5051 14.2304 22.5051 10.7696 22.007 7.363C21.8923 6.57731 21.516 5.85326 20.939 5.30781C20.3619 4.76237 19.6179 4.42739 18.827 4.357L17.31 4.222ZM6.824 5.716C10.2685 5.40803 13.7335 5.40803 17.178 5.716L18.695 5.852C19.1498 5.89239 19.5776 6.0849 19.9095 6.39845C20.2414 6.71199 20.4579 7.12825 20.524 7.58C21.0011 10.8426 21.0011 14.1573 20.524 17.42C20.4579 17.8717 20.2414 18.288 19.9095 18.6015C19.5776 18.9151 19.1498 19.1076 18.695 19.148L17.178 19.284C13.734 19.592 10.268 19.592 6.824 19.284L5.307 19.148C4.85223 19.1076 4.42435 18.9151 4.09249 18.6015C3.76062 18.288 3.54413 17.8717 3.478 17.42C3.00097 14.1573 3.00097 10.8427 3.478 7.58C3.54413 7.12825 3.76062 6.71199 4.09249 6.39845C4.42435 6.0849 4.85223 5.89239 5.307 5.852L6.824 5.716Z" fill="#736F6E"/>
</svg>
