<?xml version="1.0" standalone="no"?>
<!DOCTYPE svg PUBLIC "-//W3C//DTD SVG 20010904//EN"
 "http://www.w3.org/TR/2001/REC-SVG-20010904/DTD/svg10.dtd">
<svg version="1.0" xmlns="http://www.w3.org/2000/svg"
 width="1280.000000pt" height="1280.000000pt" viewBox="0 0 1280.000000 1280.000000"
 preserveAspectRatio="xMidYMid meet">
<metadata>
Created by potrace 1.15, written by Peter Selinger 2001-2017
</metadata>
<g transform="translate(0.000000,1280.000000) scale(0.100000,-0.100000)"
fill="#000000" stroke="none">
<path d="M6055 11670 c-159 -34 -310 -148 -409 -310 -25 -41 -46 -80 -46 -86
0 -7 -13 -37 -29 -66 -16 -29 -37 -80 -46 -112 -16 -55 -19 -58 -31 -41 -8 10
-14 24 -14 30 0 22 -140 179 -206 233 -79 63 -197 124 -281 146 -84 22 -207
21 -282 -3 -141 -44 -246 -146 -327 -319 -93 -198 -133 -370 -106 -453 l11
-34 -17 25 c-26 38 -70 77 -148 129 -169 114 -388 165 -556 130 -127 -27 -252
-120 -303 -226 -15 -32 -36 -75 -46 -95 -54 -106 -79 -214 -79 -331 1 -128 21
-220 69 -322 2 -5 -10 2 -27 17 -35 30 -113 61 -211 85 -103 26 -297 24 -386
-4 -81 -26 -177 -84 -219 -134 -35 -42 -112 -204 -132 -279 -19 -71 -18 -192
2 -288 20 -99 77 -238 111 -274 30 -32 28 -34 -13 -14 -81 40 -329 46 -459 12
-148 -40 -303 -145 -346 -236 -9 -19 -31 -65 -48 -101 -58 -121 -60 -261 -6
-419 43 -125 165 -311 226 -342 23 -12 18 -13 -60 -15 -217 -4 -462 -123 -581
-282 -22 -29 -40 -59 -40 -65 0 -7 -11 -35 -25 -62 -77 -151 -71 -284 23 -471
28 -54 96 -148 142 -194 74 -74 213 -169 249 -169 11 0 21 -4 21 -10 0 -5 -13
-10 -29 -10 -111 0 -386 -204 -449 -332 -87 -178 -95 -202 -100 -273 -16 -255
175 -488 497 -605 45 -17 98 -30 119 -30 l37 -1 -42 -22 c-57 -29 -136 -97
-201 -171 -57 -66 -158 -260 -188 -362 -22 -75 -15 -198 15 -276 85 -220 358
-379 658 -382 l102 -1 -24 -20 c-66 -57 -188 -282 -236 -434 -28 -90 -28 -232
0 -322 76 -242 316 -380 639 -367 62 3 114 3 116 -1 3 -4 -7 -45 -21 -91 -30
-99 -37 -259 -14 -350 24 -100 75 -191 140 -253 78 -74 158 -112 286 -133 155
-26 302 -2 478 79 48 22 90 37 93 34 3 -3 -4 -49 -16 -102 -31 -132 -25 -321
13 -440 32 -99 83 -184 149 -252 92 -93 197 -133 354 -133 190 0 377 80 536
229 36 33 68 61 71 61 3 0 8 -37 12 -83 25 -287 166 -532 359 -627 169 -83
368 -61 546 60 121 82 198 168 290 320 27 45 51 76 54 69 92 -310 286 -516
533 -566 64 -13 87 -14 146 -3 207 37 384 205 502 476 19 43 35 89 35 102 0
12 5 22 10 22 6 0 10 -9 10 -19 0 -30 98 -170 170 -242 221 -222 498 -288 714
-171 108 58 230 215 285 367 13 33 27 63 32 66 6 3 20 54 32 113 19 100 20
110 5 156 -18 55 -8 69 12 19 27 -65 205 -183 348 -231 154 -52 335 -49 465 9
80 36 184 155 239 273 22 47 44 92 49 100 30 49 33 72 33 220 0 160 -17 268
-50 317 -18 28 -10 29 23 3 56 -44 250 -90 381 -90 225 0 398 101 488 285 21
44 42 82 45 85 32 24 41 241 15 355 -21 90 -61 195 -92 240 -30 45 -30 49 0
30 44 -29 181 -48 301 -42 263 15 451 114 548 289 20 35 39 75 42 91 4 15 14
31 23 36 13 7 17 31 20 109 5 125 -19 229 -83 359 -51 103 -164 249 -210 270
l-30 14 35 -5 c50 -6 203 22 280 51 194 72 346 212 407 371 9 26 24 52 33 59
23 17 20 190 -4 263 -24 69 -76 174 -110 220 -80 107 -255 249 -340 276 -36
11 -38 13 -13 13 43 1 179 64 253 117 130 92 218 199 274 331 15 35 29 60 32
57 8 -7 28 88 28 129 0 54 -29 156 -63 225 -35 73 -124 174 -202 232 -106 78
-257 147 -336 152 -47 4 -49 10 -6 26 46 17 169 122 226 195 50 62 151 245
151 272 0 8 4 15 9 15 31 0 48 160 27 258 -58 277 -356 471 -723 473 -92 0
-103 2 -86 14 42 30 162 233 192 328 7 20 16 37 21 37 10 0 27 69 35 146 16
144 -41 313 -138 408 -111 108 -267 165 -467 172 -143 4 -137 -2 -100 99 31
84 39 281 16 379 -46 193 -170 325 -361 382 -44 14 -93 18 -185 18 -146 0
-238 -20 -377 -84 -47 -22 -87 -39 -89 -37 -1 1 4 34 13 72 24 105 21 299 -6
399 -59 223 -194 373 -376 421 -223 58 -495 -33 -711 -237 l-52 -49 -7 63
c-26 238 -103 409 -242 538 -168 158 -375 181 -600 67 -117 -60 -255 -194
-327 -319 -16 -27 -31 -48 -36 -48 -4 0 -11 17 -15 37 -3 20 -19 69 -35 109
-89 222 -269 409 -448 464 -76 24 -181 33 -237 20z"/>
</g>
</svg>
