<?xml version="1.0" encoding="UTF-8"?>
<svg xmlns="http://www.w3.org/2000/svg" xmlns:xlink="http://www.w3.org/1999/xlink" width="700px" height="700px" viewBox="0 0 700 700" version="1.1">
<g id="surface1">
<path style=" stroke:none;fill-rule:nonzero;fill:rgb(0%,0%,0%);fill-opacity:1;" d="M 327.675781 38.414062 C 341.96875 32.492188 358.03125 32.492188 372.324219 38.414062 L 554.539062 113.890625 C 568.835938 119.808594 580.1875 131.167969 586.109375 145.460938 L 661.585938 327.675781 C 667.507812 341.96875 667.507812 358.03125 661.585938 372.324219 L 586.109375 554.539062 C 580.1875 568.835938 568.835938 580.1875 554.539062 586.109375 L 372.324219 661.585938 C 358.03125 667.507812 341.96875 667.507812 327.675781 661.585938 L 145.460938 586.109375 C 131.167969 580.1875 119.808594 568.835938 113.890625 554.539062 L 38.414062 372.324219 C 32.492188 358.03125 32.492188 341.96875 38.414062 327.675781 L 113.890625 145.460938 C 119.808594 131.167969 131.167969 119.808594 145.460938 113.890625 Z M 327.675781 38.414062 "/>
</g>
</svg>
