<svg version="1.1" id="Layer_1" xmlns="http://www.w3.org/2000/svg" xmlns:xlink="http://www.w3.org/1999/xlink" x="0px" y="0px"
	 width="100%" viewBox="0 0 215 209" enable-background="new 0 0 215 209" xml:space="preserve">
<path fill="#FEFEFE" opacity="1.000000" stroke="none" 
	d="
M216.000000,78.000000 
	C216.000000,122.333336 216.000000,166.166672 216.000000,210.000000 
	C144.333328,210.000000 72.666664,210.000000 1.000000,210.000000 
	C1.000000,140.333328 1.000000,70.666664 1.000000,1.000000 
	C72.666664,1.000000 144.333328,1.000000 216.000000,1.000000 
	C216.000000,26.500000 216.000000,52.000000 216.000000,78.000000 
M93.693977,200.995483 
	C96.697716,202.036362 99.701447,203.077240 103.045906,204.741119 
	C106.334831,207.336014 109.467361,207.513580 113.045967,204.120483 
	C113.702209,203.968765 114.358452,203.817032 115.618622,203.721573 
	C116.189430,203.190536 116.760239,202.659500 118.072952,202.106171 
	C124.389778,199.580353 130.706604,197.054550 137.615097,194.651886 
	C138.182190,194.142319 138.749283,193.632751 139.888275,193.120804 
	C140.260574,193.041367 140.632874,192.961945 141.639618,192.856995 
	C142.221603,192.286377 142.803574,191.715759 144.128967,191.180023 
	C149.756577,189.022659 155.384171,186.865311 161.624161,184.741440 
	C162.188156,184.201736 162.752151,183.662033 164.056656,183.104340 
	C166.062622,182.398239 168.056641,181.655640 170.076843,180.992920 
	C175.973068,179.058655 181.591980,176.856934 182.692322,169.075043 
	C182.985565,168.391037 183.278793,167.707031 183.894089,166.337036 
	C184.966370,163.319748 186.038666,160.302460 187.664398,157.013840 
	C187.998352,156.347763 188.332306,155.681686 188.955933,154.318497 
	C195.312973,138.977936 201.772491,123.678078 207.901230,108.246864 
	C208.694321,106.249992 208.296997,103.393265 207.550415,101.248314 
	C205.696243,95.921120 203.300262,90.783798 201.159500,85.554817 
	C194.363022,68.953850 187.651703,52.317272 180.698593,35.782291 
	C179.957123,34.018982 178.099625,32.216099 176.324112,31.473904 
	C154.562271,22.377048 132.745438,13.409075 110.852425,4.633271 
	C108.862106,3.835459 105.977623,3.925340 103.963913,4.735408 
	C82.388969,13.414529 60.878387,22.256592 39.441528,31.271263 
	C37.381714,32.137459 35.187111,34.145863 34.323223,36.166267 
	C25.969597,55.703136 18.088945,75.443680 9.618664,94.928459 
	C6.647246,101.763809 5.197340,107.969055 9.878734,114.512009 
	C11.008680,116.091293 11.449574,118.163582 12.199194,120.632912 
	C12.745280,121.235779 13.291367,121.838654 13.845163,123.173706 
	C14.953504,126.118416 16.061844,129.063126 17.185966,132.711563 
	C18.080612,134.254013 18.975256,135.796463 19.868387,137.994385 
	C20.265377,138.997025 20.662365,139.999664 21.114361,141.634399 
	C21.739552,142.100006 22.364742,142.565628 22.922489,143.844437 
	C23.308516,145.595428 23.461224,147.440201 24.120705,149.081299 
	C27.070642,156.422104 30.165045,163.704865 33.213158,171.626923 
	C33.759193,172.216095 34.305229,172.805267 34.858246,174.125015 
	C35.681881,175.197098 36.282604,176.760757 37.368996,177.253403 
	C41.377563,179.071182 45.546803,180.534637 49.998528,182.742218 
	C51.663437,183.451889 53.328346,184.161560 55.692375,185.077820 
	C59.354492,186.426834 63.016609,187.775864 66.965515,189.679504 
	C67.639198,190.025299 68.312874,190.371078 69.626732,190.921494 
	C70.292839,190.995361 70.958946,191.069229 71.927299,191.703003 
	C72.614998,192.064240 73.302689,192.425476 74.702164,193.015152 
	C78.815598,194.646881 82.929031,196.278625 87.359009,198.399979 
	C87.904556,198.555954 88.450104,198.711914 89.549919,199.048096 
	C89.936646,199.069565 90.323372,199.091034 90.985443,199.672333 
	C91.653610,200.034576 92.321777,200.396820 93.693977,200.995483 
z"/>
<path fill="#BCBCBC" opacity="1.000000" stroke="none" 
	d="
M21.059353,141.002304 
	C20.662365,139.999664 20.265377,138.997025 19.884918,137.278427 
	C18.991026,135.044250 18.080606,133.526047 17.170185,132.007828 
	C16.061844,129.063126 14.953504,126.118416 13.866563,122.454643 
	C13.327756,121.160103 12.767550,120.584625 12.207342,120.009155 
	C11.449574,118.163582 11.008680,116.091293 9.878734,114.512009 
	C5.197340,107.969055 6.647246,101.763809 9.618664,94.928459 
	C18.088945,75.443680 25.969597,55.703136 34.323223,36.166267 
	C35.187111,34.145863 37.381714,32.137459 39.441528,31.271263 
	C60.878387,22.256592 82.388969,13.414529 103.963913,4.735408 
	C105.977623,3.925340 108.862106,3.835459 110.852425,4.633271 
	C132.745438,13.409075 154.562271,22.377048 176.324112,31.473904 
	C178.099625,32.216099 179.957123,34.018982 180.698593,35.782291 
	C187.651703,52.317272 194.363022,68.953850 201.159500,85.554817 
	C203.300262,90.783798 205.696243,95.921120 207.550415,101.248314 
	C208.296997,103.393265 208.694321,106.249992 207.901230,108.246864 
	C201.772491,123.678078 195.312973,138.977936 188.512924,154.736984 
	C187.750259,155.865372 187.430603,156.575272 187.110931,157.285172 
	C186.038666,160.302460 184.966370,163.319748 183.441376,166.761307 
	C182.708206,167.916992 182.427734,168.648422 182.147263,169.379837 
	C181.591980,176.856934 175.973068,179.058655 170.076843,180.992920 
	C168.056641,181.655640 166.062622,182.398239 163.351593,183.097214 
	C162.101624,183.629379 161.556702,184.168671 161.011780,184.707962 
	C155.384171,186.865311 149.756577,189.022659 143.401794,191.142487 
	C142.118134,191.697464 141.561646,192.289993 141.005173,192.882523 
	C140.632874,192.961945 140.260574,193.041367 139.280914,193.103058 
	C138.123520,193.566437 137.573471,194.047592 137.023438,194.528732 
	C130.706604,197.054550 124.389778,199.580353 117.369019,202.098969 
	C116.114960,202.616272 115.564827,203.140793 115.014694,203.665298 
	C114.358452,203.817032 113.702209,203.968765 112.285538,204.115295 
	C108.585136,204.112778 105.645157,204.115448 102.705177,204.118134 
	C99.701447,203.077240 96.697716,202.036362 93.277565,200.565918 
	C92.144135,199.795059 91.427116,199.453781 90.710098,199.112488 
	C90.323372,199.091034 89.936646,199.069565 89.239288,198.684418 
	C88.299927,198.183960 87.671196,198.047150 87.042465,197.910355 
	C82.929031,196.278625 78.815598,194.646881 74.279915,192.580536 
	C73.113464,191.811661 72.369263,191.477371 71.625061,191.143082 
	C70.958946,191.069229 70.292839,190.995361 69.238449,190.512054 
	C68.126350,189.776703 67.402542,189.450790 66.678726,189.124878 
	C63.016609,187.775864 59.354492,186.426834 55.277153,184.636444 
	C53.126495,183.507141 51.391064,182.819229 49.655628,182.131317 
	C45.546803,180.534637 41.377563,179.071182 37.368996,177.253403 
	C36.282604,176.760757 35.681881,175.197098 34.877163,173.410736 
	C34.333149,172.133850 33.770214,171.571213 33.207283,171.008575 
	C30.165045,163.704865 27.070642,156.422104 24.120705,149.081299 
	C23.461224,147.440201 23.308516,145.595428 22.921936,143.117493 
	C22.300709,141.927795 21.680031,141.465057 21.059353,141.002304 
M92.087479,195.887878 
	C94.397362,196.719604 96.707245,197.551331 99.169106,198.975906 
	C99.885178,199.276047 100.601250,199.576187 102.019936,199.968445 
	C103.354202,200.445389 104.688469,200.922333 106.198898,202.002548 
	C107.463722,201.708572 108.728539,201.414597 110.611496,200.759125 
	C112.632576,200.130997 114.653656,199.502869 117.445435,198.902435 
	C118.961037,197.986237 120.476639,197.070038 122.560707,196.008026 
	C122.949219,195.970276 123.337730,195.932510 124.521378,195.901657 
	C126.346870,194.947174 128.172363,193.992676 130.636444,192.706772 
	C134.004852,191.437912 137.373245,190.169052 141.511444,188.910004 
	C143.668991,187.716293 145.826553,186.522568 148.663696,185.093948 
	C150.036148,184.701141 151.408585,184.308350 153.397552,183.926727 
	C153.924057,183.445282 154.450562,182.963837 155.631485,182.211960 
	C156.328918,182.105774 157.026367,181.999603 158.500916,181.905685 
	C160.660248,180.743134 162.819595,179.580582 165.661240,178.119858 
	C167.980911,177.364960 170.300568,176.610062 173.298981,175.899063 
	C173.861694,175.360565 174.424408,174.822067 175.631500,173.958084 
	C177.195862,170.633713 178.760223,167.309357 180.950485,163.831451 
	C181.289597,162.859634 181.628723,161.887802 182.053909,160.177826 
	C188.405792,144.783615 194.757675,129.389389 201.790497,113.865150 
	C202.137711,113.088631 202.484924,112.312119 202.806335,110.809967 
	C203.305740,109.202873 203.805145,107.595787 204.821732,105.888611 
	C204.646210,105.262741 204.470688,104.636879 204.040344,103.346657 
	C203.655136,101.993317 203.269928,100.639984 202.949982,98.530090 
	C202.316467,97.687508 201.682968,96.844917 200.737244,95.369751 
	C193.106827,77.124176 185.558914,58.843063 177.736526,40.680164 
	C176.808304,38.524921 174.713394,36.226151 172.594269,35.330051 
	C152.106949,26.666622 131.514221,18.250847 110.896309,9.900823 
	C109.199402,9.213592 106.814270,8.834696 105.225494,9.482100 
	C84.464546,17.941902 63.758186,26.539165 43.139683,35.339863 
	C40.980301,36.261559 38.676846,38.363419 37.777790,40.484638 
	C29.089825,60.982933 20.644745,81.584991 12.289540,102.221893 
	C11.638276,103.830475 11.734703,106.066544 12.263422,107.768753 
	C14.029655,113.455139 16.150583,119.031349 18.092020,125.375633 
	C18.903393,126.575890 19.714767,127.776154 20.823446,129.694061 
	C23.254356,136.029678 25.685266,142.365311 28.094965,149.477386 
	C29.285835,151.646118 30.476704,153.814865 31.910490,156.708725 
	C33.615341,160.786697 35.631760,164.768723 36.926193,168.973053 
	C37.956810,172.320496 39.701283,174.449966 43.161606,175.954956 
	C43.871582,176.265396 44.581562,176.575851 45.874306,176.898087 
	C46.252144,176.986115 46.629982,177.074142 47.149029,177.843491 
	C48.183632,178.195114 49.218239,178.546738 50.964630,178.921341 
	C51.650429,179.099869 52.336227,179.278381 53.188892,180.052994 
	C54.562328,180.661636 55.935764,181.270279 58.005287,181.883362 
	C58.676796,182.051315 59.348305,182.219269 60.185387,182.998215 
	C61.827888,183.651901 63.470387,184.305603 65.758362,184.983154 
	C66.176247,185.081985 66.594124,185.180801 67.152061,185.902374 
	C67.883202,186.223679 68.614342,186.544983 70.086258,186.884079 
	C72.396500,187.715576 74.706741,188.547058 77.173119,189.995590 
	C78.562897,190.619110 79.952682,191.242645 82.075279,191.875916 
	C84.388611,192.698166 86.701942,193.520401 89.165237,194.950974 
	C89.895699,195.254822 90.626167,195.558670 92.087479,195.887878 
z"/>
<path fill="#BDBDBD" opacity="1.000000" stroke="none" 
	d="
M102.875542,204.429626 
	C105.645157,204.115448 108.585136,204.112778 111.947563,204.123993 
	C109.467361,207.513580 106.334831,207.336014 102.875542,204.429626 
z"/>
<path fill="#BDBDBD" opacity="1.000000" stroke="none" 
	d="
M49.827080,182.436768 
	C51.391064,182.819229 53.126495,183.507141 54.927589,184.533142 
	C53.328346,184.161560 51.663437,183.451889 49.827080,182.436768 
z"/>
<path fill="#BDBDBD" opacity="1.000000" stroke="none" 
	d="
M17.178076,132.359695 
	C18.080606,133.526047 18.991026,135.044250 19.885674,136.950684 
	C18.975256,135.796463 18.080612,134.254013 17.178076,132.359695 
z"/>
<path fill="#BDBDBD" opacity="1.000000" stroke="none" 
	d="
M87.200737,198.155167 
	C87.671196,198.047150 88.299927,198.183960 88.962158,198.594315 
	C88.450104,198.711914 87.904556,198.555954 87.200737,198.155167 
z"/>
<path fill="#BDBDBD" opacity="1.000000" stroke="none" 
	d="
M137.319275,194.590302 
	C137.573471,194.047592 138.123520,193.566437 138.994965,193.104248 
	C138.749283,193.632751 138.182190,194.142319 137.319275,194.590302 
z"/>
<path fill="#BDBDBD" opacity="1.000000" stroke="none" 
	d="
M90.847771,199.392410 
	C91.427116,199.453781 92.144135,199.795059 92.925545,200.447693 
	C92.321777,200.396820 91.653610,200.034576 90.847771,199.392410 
z"/>
<path fill="#BDBDBD" opacity="1.000000" stroke="none" 
	d="
M141.322388,192.869751 
	C141.561646,192.289993 142.118134,191.697464 143.030075,191.125031 
	C142.803574,191.715759 142.221603,192.286377 141.322388,192.869751 
z"/>
<path fill="#BDBDBD" opacity="1.000000" stroke="none" 
	d="
M115.316658,203.693436 
	C115.564827,203.140793 116.114960,202.616272 116.998070,202.110123 
	C116.760239,202.659500 116.189430,203.190536 115.316658,203.693436 
z"/>
<path fill="#BDBDBD" opacity="1.000000" stroke="none" 
	d="
M71.776184,191.423035 
	C72.369263,191.477371 73.113464,191.811661 73.924026,192.466324 
	C73.302689,192.425476 72.614998,192.064240 71.776184,191.423035 
z"/>
<path fill="#BDBDBD" opacity="1.000000" stroke="none" 
	d="
M66.822121,189.402191 
	C67.402542,189.450790 68.126350,189.776703 68.918365,190.409744 
	C68.312874,190.371078 67.639198,190.025299 66.822121,189.402191 
z"/>
<path fill="#BDBDBD" opacity="1.000000" stroke="none" 
	d="
M161.317963,184.724701 
	C161.556702,184.168671 162.101624,183.629379 162.981354,183.106201 
	C162.752151,183.662033 162.188156,184.201736 161.317963,184.724701 
z"/>
<path fill="#BDBDBD" opacity="1.000000" stroke="none" 
	d="
M33.210220,171.317749 
	C33.770214,171.571213 34.333149,172.133850 34.873672,173.045456 
	C34.305229,172.805267 33.759193,172.216095 33.210220,171.317749 
z"/>
<path fill="#BDBDBD" opacity="1.000000" stroke="none" 
	d="
M182.419800,169.227448 
	C182.427734,168.648422 182.708206,167.916992 183.280350,167.104294 
	C183.278793,167.707031 182.985565,168.391037 182.419800,169.227448 
z"/>
<path fill="#BDBDBD" opacity="1.000000" stroke="none" 
	d="
M187.387665,157.149506 
	C187.430603,156.575272 187.750259,155.865372 188.368088,155.085541 
	C188.332306,155.681686 187.998352,156.347763 187.387665,157.149506 
z"/>
<path fill="#BDBDBD" opacity="1.000000" stroke="none" 
	d="
M21.086857,141.318359 
	C21.680031,141.465057 22.300709,141.927795 22.955658,142.710892 
	C22.364742,142.565628 21.739552,142.100006 21.086857,141.318359 
z"/>
<path fill="#BDBDBD" opacity="1.000000" stroke="none" 
	d="
M12.203268,120.321030 
	C12.767550,120.584625 13.327756,121.160103 13.862707,122.088547 
	C13.291367,121.838654 12.745280,121.235779 12.203268,120.321030 
z"/>
<path fill="#FFFFFF" opacity="1.000000" stroke="none" 
	d="
M202.884705,99.286644 
	C203.269928,100.639984 203.655136,101.993317 204.103363,104.006699 
	C204.212448,105.107391 204.258514,105.548042 204.304565,105.988701 
	C203.805145,107.595787 203.305740,109.202873 202.537018,111.337341 
	C201.881668,112.574867 201.495605,113.285019 201.109543,113.995171 
	C194.757675,129.389389 188.405792,144.783615 181.750015,160.718933 
	C181.072266,162.168350 180.698410,163.076660 180.324570,163.984985 
	C178.760223,167.309357 177.195862,170.633713 175.003204,174.108322 
	C173.790024,174.790771 173.205139,175.322983 172.620239,175.855194 
	C170.300568,176.610062 167.980911,177.364960 164.972580,178.215302 
	C162.097214,179.504974 159.910507,180.699203 157.723801,181.893417 
	C157.026367,181.999603 156.328918,182.105774 155.012177,182.273834 
	C153.855576,182.862335 153.318298,183.388947 152.781036,183.915558 
	C151.408585,184.308350 150.036148,184.701141 147.968994,185.191254 
	C145.096741,186.492432 142.919205,187.696304 140.741653,188.900177 
	C137.373245,190.169052 134.004852,191.437912 129.944489,192.874588 
	C127.410423,193.993195 125.568329,194.943970 123.726242,195.894745 
	C123.337730,195.932510 122.949219,195.970276 121.926132,196.087112 
	C119.752617,197.069046 118.213676,197.971893 116.674736,198.874756 
	C114.653656,199.502869 112.632576,200.130997 109.903313,200.936600 
	C108.137665,201.209152 107.080200,201.304214 106.022736,201.399292 
	C104.688469,200.922333 103.354202,200.445389 101.520218,199.652100 
	C100.352715,199.018188 99.684921,198.700607 99.017128,198.383057 
	C96.707245,197.551331 94.397362,196.719604 91.572144,195.601196 
	C90.376289,194.990570 89.695786,194.666626 89.015274,194.342651 
	C86.701942,193.520401 84.388611,192.698166 81.552368,191.572266 
	C79.691971,190.638611 78.354477,190.008575 77.016983,189.378540 
	C74.706741,188.547058 72.396500,187.715576 69.563660,186.601318 
	C68.364716,185.972244 67.688362,185.625946 67.012009,185.279633 
	C66.594124,185.180801 66.176247,185.081985 65.316803,184.655609 
	C63.256767,183.681122 61.638290,183.034180 60.019814,182.387222 
	C59.348305,182.219269 58.676796,182.051315 57.500080,181.585983 
	C55.670589,180.678040 54.346306,180.067474 53.022026,179.456909 
	C52.336227,179.278381 51.650429,179.099869 50.456841,178.606216 
	C48.968636,177.914795 47.988228,177.538483 47.007820,177.162170 
	C46.629982,177.074142 46.252144,176.986115 45.441574,176.618073 
	C44.344311,176.011719 43.679779,175.685379 43.015244,175.359039 
	C39.701283,174.449966 37.956810,172.320496 36.926193,168.973053 
	C35.631760,164.768723 33.615341,160.786697 31.813999,155.991394 
	C30.517065,153.083008 29.316622,150.891968 28.116177,148.700928 
	C25.685266,142.365311 23.254356,136.029678 20.737589,129.011658 
	C19.813032,127.102745 18.974331,125.876259 18.135632,124.649765 
	C16.150583,119.031349 14.029655,113.455139 12.263422,107.768753 
	C11.734703,106.066544 11.638276,103.830475 12.289540,102.221893 
	C20.644745,81.584991 29.089825,60.982933 37.777790,40.484638 
	C38.676846,38.363419 40.980301,36.261559 43.139683,35.339863 
	C63.758186,26.539165 84.464546,17.941902 105.225494,9.482100 
	C106.814270,8.834696 109.199402,9.213592 110.896309,9.900823 
	C131.514221,18.250847 152.106949,26.666622 172.594269,35.330051 
	C174.713394,36.226151 176.808304,38.524921 177.736526,40.680164 
	C185.558914,58.843063 193.106827,77.124176 200.893524,96.027374 
	C201.661453,97.552216 202.273087,98.419426 202.884705,99.286644 
z"/>
<path fill="#BDBDBD" opacity="1.000000" stroke="none" 
	d="
M141.126556,188.905090 
	C142.919205,187.696304 145.096741,186.492432 147.629196,185.308701 
	C145.826553,186.522568 143.668991,187.716293 141.126556,188.905090 
z"/>
<path fill="#BDBDBD" opacity="1.000000" stroke="none" 
	d="
M28.105572,149.089157 
	C29.316622,150.891968 30.517065,153.083008 31.692541,155.628815 
	C30.476704,153.814865 29.285835,151.646118 28.105572,149.089157 
z"/>
<path fill="#BDBDBD" opacity="1.000000" stroke="none" 
	d="
M158.112366,181.899551 
	C159.910507,180.699203 162.097214,179.504974 164.631439,178.364380 
	C162.819595,179.580582 160.660248,180.743134 158.112366,181.899551 
z"/>
<path fill="#BDBDBD" opacity="1.000000" stroke="none" 
	d="
M124.123810,195.898193 
	C125.568329,194.943970 127.410423,193.993195 129.625183,193.040298 
	C128.172363,193.992676 126.346870,194.947174 124.123810,195.898193 
z"/>
<path fill="#BDBDBD" opacity="1.000000" stroke="none" 
	d="
M60.102600,182.692719 
	C61.638290,183.034180 63.256767,183.681122 64.994064,184.643677 
	C63.470387,184.305603 61.827888,183.651901 60.102600,182.692719 
z"/>
<path fill="#BDBDBD" opacity="1.000000" stroke="none" 
	d="
M117.060089,198.888580 
	C118.213676,197.971893 119.752617,197.069046 121.641899,196.160004 
	C120.476639,197.070038 118.961037,197.986237 117.060089,198.888580 
z"/>
<path fill="#BDBDBD" opacity="1.000000" stroke="none" 
	d="
M77.095055,189.687073 
	C78.354477,190.008575 79.691971,190.638611 81.185966,191.567413 
	C79.952682,191.242645 78.562897,190.619110 77.095055,189.687073 
z"/>
<path fill="#BDBDBD" opacity="1.000000" stroke="none" 
	d="
M18.113827,125.012695 
	C18.974331,125.876259 19.813032,127.102745 20.588936,128.652832 
	C19.714767,127.776154 18.903393,126.575890 18.113827,125.012695 
z"/>
<path fill="#BDBDBD" opacity="1.000000" stroke="none" 
	d="
M106.110817,201.700928 
	C107.080200,201.304214 108.137665,201.209152 109.594246,201.117340 
	C108.728539,201.414597 107.463722,201.708572 106.110817,201.700928 
z"/>
<path fill="#BDBDBD" opacity="1.000000" stroke="none" 
	d="
M53.105457,179.754944 
	C54.346306,180.067474 55.670589,180.678040 57.152035,181.583771 
	C55.935764,181.270279 54.562328,180.661636 53.105457,179.754944 
z"/>
<path fill="#BDBDBD" opacity="1.000000" stroke="none" 
	d="
M202.917343,98.908371 
	C202.273087,98.419426 201.661453,97.552216 201.049652,96.343666 
	C201.682968,96.844917 202.316467,97.687508 202.917343,98.908371 
z"/>
<path fill="#BDBDBD" opacity="1.000000" stroke="none" 
	d="
M47.078423,177.502838 
	C47.988228,177.538483 48.968636,177.914795 50.100945,178.594727 
	C49.218239,178.546738 48.183632,178.195114 47.078423,177.502838 
z"/>
<path fill="#BDBDBD" opacity="1.000000" stroke="none" 
	d="
M180.637527,163.908218 
	C180.698410,163.076660 181.072266,162.168350 181.706970,161.088013 
	C181.628723,161.887802 181.289597,162.859634 180.637527,163.908218 
z"/>
<path fill="#BDBDBD" opacity="1.000000" stroke="none" 
	d="
M89.090256,194.646820 
	C89.695786,194.666626 90.376289,194.990570 91.206711,195.588531 
	C90.626167,195.558670 89.895699,195.254822 89.090256,194.646820 
z"/>
<path fill="#BDBDBD" opacity="1.000000" stroke="none" 
	d="
M99.093117,198.679474 
	C99.684921,198.700607 100.352715,199.018188 101.168915,199.606049 
	C100.601250,199.576187 99.885178,199.276047 99.093117,198.679474 
z"/>
<path fill="#BDBDBD" opacity="1.000000" stroke="none" 
	d="
M153.089294,183.921143 
	C153.318298,183.388947 153.855576,182.862335 154.684967,182.409058 
	C154.450562,182.963837 153.924057,183.445282 153.089294,183.921143 
z"/>
<path fill="#BDBDBD" opacity="1.000000" stroke="none" 
	d="
M67.082031,185.591003 
	C67.688362,185.625946 68.364716,185.972244 69.193268,186.592422 
	C68.614342,186.544983 67.883202,186.223679 67.082031,185.591003 
z"/>
<path fill="#BDBDBD" opacity="1.000000" stroke="none" 
	d="
M204.563141,105.938660 
	C204.258514,105.548042 204.212448,105.107391 204.230774,104.338867 
	C204.470688,104.636879 204.646210,105.262741 204.563141,105.938660 
z"/>
<path fill="#BDBDBD" opacity="1.000000" stroke="none" 
	d="
M43.088425,175.656998 
	C43.679779,175.685379 44.344311,176.011719 45.150192,176.612183 
	C44.581562,176.575851 43.871582,176.265396 43.088425,175.656998 
z"/>
<path fill="#BDBDBD" opacity="1.000000" stroke="none" 
	d="
M172.959625,175.877136 
	C173.205139,175.322983 173.790024,174.790771 174.681000,174.271057 
	C174.424408,174.822067 173.861694,175.360565 172.959625,175.877136 
z"/>
<path fill="#BDBDBD" opacity="1.000000" stroke="none" 
	d="
M201.450012,113.930161 
	C201.495605,113.285019 201.881668,112.574867 202.549927,111.700165 
	C202.484924,112.312119 202.137711,113.088631 201.450012,113.930161 
z"/>
</svg>