<svg version="1.1" id="Layer_1" xmlns="http://www.w3.org/2000/svg" xmlns:xlink="http://www.w3.org/1999/xlink" x="0px" y="0px"
	 width="100%" viewBox="0 0 227 225" enable-background="new 0 0 227 225" xml:space="preserve">
<path fill="#FEFEFE" opacity="1.000000" stroke="none" 
	d="
M1.000000,60.000000 
	C1.000000,40.000000 1.000000,20.500002 1.000000,1.000003 
	C76.666664,1.000002 152.333328,1.000002 228.000000,1.000001 
	C228.000000,75.999992 228.000000,150.999985 228.000000,225.999969 
	C152.333344,225.999985 76.666695,225.999985 1.000022,226.000000 
	C1.000000,170.833328 1.000000,115.666664 1.000000,60.000000 
M13.744486,209.931900 
	C14.648448,215.995972 19.578646,215.757828 23.727217,215.765411 
	C84.190002,215.876038 144.653061,215.860931 205.116013,215.823273 
	C214.031860,215.817734 216.042435,213.712448 216.042328,205.034851 
	C216.041489,144.571869 216.038345,84.108894 216.032104,23.645914 
	C216.031097,13.903215 214.952835,12.828608 205.088837,12.827702 
	C145.625244,12.822239 86.161644,12.822453 26.698046,12.827720 
	C13.142988,12.828919 12.680926,13.325030 13.040105,27.934765 
	C13.027531,86.897446 13.010072,145.860138 13.031044,204.822800 
	C13.031558,206.270279 13.458573,207.717575 13.744486,209.931900 
z"/>
<path fill="#B6B6B6" opacity="1.000000" stroke="none" 
	d="
M13.149180,27.003736 
	C12.680926,13.325030 13.142988,12.828919 26.698046,12.827720 
	C86.161644,12.822453 145.625244,12.822239 205.088837,12.827702 
	C214.952835,12.828608 216.031097,13.903215 216.032104,23.645914 
	C216.038345,84.108894 216.041489,144.571869 216.042328,205.034851 
	C216.042435,213.712448 214.031860,215.817734 205.116013,215.823273 
	C144.653061,215.860931 84.190002,215.876038 23.727217,215.765411 
	C19.578646,215.757828 14.648448,215.995972 14.068674,209.270767 
	C14.594298,207.653748 14.971564,206.697937 14.972035,205.741943 
	C15.000731,147.493835 15.010806,89.245697 14.921901,30.997705 
	C14.919868,29.665483 13.765851,28.335020 13.149180,27.003736 
M209.397247,211.577118 
	C209.963669,211.128448 210.530090,210.679779 211.581314,209.521561 
	C211.706345,208.374619 211.940506,207.227722 211.940781,206.080750 
	C211.955383,144.885895 211.956573,83.691048 211.912552,22.496235 
	C211.911392,20.890131 211.395523,19.284401 210.988907,17.171021 
	C210.335892,17.058733 209.682861,16.946445 208.090622,16.887243 
	C147.107193,16.896135 86.123764,16.904560 25.140331,16.914511 
	C17.419256,16.915771 17.136898,17.151117 17.116226,25.107616 
	C17.075539,40.769966 17.101669,56.432487 17.101543,72.094940 
	C17.101185,116.582962 17.168005,161.071243 16.998638,205.558609 
	C16.981720,210.002548 18.211029,211.366226 22.594061,211.159271 
	C29.576500,210.829559 36.586102,211.073151 43.584217,211.077728 
	C98.735016,211.113724 153.885803,211.150528 209.397247,211.577118 
z"/>
<path fill="#B9B9B9" opacity="1.000000" stroke="none" 
	d="
M13.094643,27.469250 
	C13.765851,28.335020 14.919868,29.665483 14.921901,30.997705 
	C15.010806,89.245697 15.000731,147.493835 14.972035,205.741943 
	C14.971564,206.697937 14.594298,207.653748 14.039765,208.887299 
	C13.458573,207.717575 13.031558,206.270279 13.031044,204.822800 
	C13.010072,145.860138 13.027531,86.897446 13.094643,27.469250 
z"/>
<path fill="#FFFFFF" opacity="1.000000" stroke="none" 
	d="
M211.119705,17.678495 
	C211.395523,19.284401 211.911392,20.890131 211.912552,22.496235 
	C211.956573,83.691048 211.955383,144.885895 211.940781,206.080750 
	C211.940506,207.227722 211.706345,208.374619 211.025787,209.850159 
	C209.992386,210.514862 209.514496,210.850967 209.036606,211.187073 
	C153.885803,211.150528 98.735016,211.113724 43.584217,211.077728 
	C36.586102,211.073151 29.576500,210.829559 22.594061,211.159271 
	C18.211029,211.366226 16.981720,210.002548 16.998638,205.558609 
	C17.168005,161.071243 17.101185,116.582962 17.101543,72.094940 
	C17.101669,56.432487 17.075539,40.769966 17.116226,25.107616 
	C17.136898,17.151117 17.419256,16.915771 25.140331,16.914511 
	C86.123764,16.904560 147.107193,16.896135 208.724319,17.126125 
	C209.945251,17.469501 210.532471,17.573997 211.119705,17.678495 
z"/>
<path fill="#CECECE" opacity="1.000000" stroke="none" 
	d="
M211.054306,17.424757 
	C210.532471,17.573997 209.945251,17.469501 209.193939,17.099583 
	C209.682861,16.946445 210.335892,17.058733 211.054306,17.424757 
z"/>
<path fill="#CECECE" opacity="1.000000" stroke="none" 
	d="
M209.216919,211.382080 
	C209.514496,210.850967 209.992386,210.514862 210.783386,210.204941 
	C210.530090,210.679779 209.963669,211.128448 209.216919,211.382080 
z"/>
</svg>