<svg version="1.1" id="Layer_1" xmlns="http://www.w3.org/2000/svg" xmlns:xlink="http://www.w3.org/1999/xlink" x="0px" y="0px"
	 width="100%" viewBox="0 0 214 212" enable-background="new 0 0 214 212" xml:space="preserve">
<path fill="#FEFEFE" opacity="1.000000" stroke="none" 
	d="
M1.000000,78.000000 
	C1.000000,52.000000 1.000000,26.500004 1.000000,1.000003 
	C72.333328,1.000002 143.666656,1.000002 215.000000,1.000001 
	C215.000000,71.666656 215.000000,142.333313 215.000000,212.999969 
	C143.666687,212.999985 72.333359,212.999985 1.000021,213.000000 
	C1.000000,168.166672 1.000000,123.333336 1.000000,78.000000 
M161.909622,183.524231 
	C163.099442,178.905258 166.857422,179.904190 170.066483,179.866028 
	C178.523956,179.765457 179.949768,178.390900 179.984467,170.061264 
	C180.015625,162.576492 180.015640,162.576492 187.684052,160.466248 
	C194.848145,158.494812 195.955078,156.578888 194.148407,149.277191 
	C192.302734,141.817871 192.302719,141.817871 198.926712,137.521118 
	C205.574738,133.208771 206.140198,131.408386 201.956100,124.669182 
	C199.147308,120.145180 198.786865,116.748016 203.301819,112.754128 
	C209.784790,107.019363 209.484192,105.203033 203.475998,99.021957 
	C198.193573,93.587517 198.193588,93.587532 202.044571,87.191696 
	C206.281525,80.154877 205.273041,76.440338 197.621399,73.191383 
	C193.143875,71.290184 192.231171,68.703178 193.643906,64.212616 
	C196.437881,55.331688 195.453598,53.361126 186.596786,50.916447 
	C181.636261,49.547230 179.558609,47.334377 179.852295,41.892490 
	C180.343613,32.788273 179.245361,31.782431 169.968979,32.146717 
	C164.715317,32.353024 162.139511,30.774021 161.047592,25.399353 
	C159.338470,16.986614 156.966324,15.574729 148.789078,18.094692 
	C143.699905,19.663015 140.866577,18.412819 138.309479,13.881401 
	C133.802917,5.895322 132.300888,5.467903 124.278893,10.096931 
	C119.542625,12.829959 116.283630,12.376986 112.579971,8.292119 
	C106.943382,2.075368 104.937302,2.072898 99.355095,8.453156 
	C95.745865,12.578376 92.671844,13.281176 88.033379,10.225555 
	C80.049561,4.966160 77.366783,7.016029 73.652763,14.489405 
	C71.385719,19.051180 68.950806,19.466637 64.577065,18.243479 
	C55.117889,15.598134 52.117146,17.391855 50.338203,26.934328 
	C49.606941,30.856905 47.552017,31.861221 44.226826,31.938377 
	C42.394524,31.980892 40.559731,32.015633 38.728149,31.970016 
	C34.270657,31.858997 32.501015,34.497112 32.107048,38.459827 
	C31.959385,39.945087 31.941097,41.472183 32.103760,42.953861 
	C32.582352,47.313290 31.039555,49.548397 26.425146,50.576584 
	C16.729616,52.736946 15.648132,54.569244 18.425873,64.120445 
	C19.779356,68.774368 18.542524,70.939377 14.387547,73.089218 
	C6.282470,77.282890 5.235118,80.251610 10.232614,87.562180 
	C13.699479,92.633682 12.101290,95.490929 8.398955,98.857590 
	C2.909127,103.849663 2.870060,106.045380 7.726411,111.179382 
	C13.684727,117.478348 13.684729,117.478340 9.561490,125.098427 
	C6.079469,131.533478 6.383777,133.405060 13.002401,136.852921 
	C18.039454,139.476898 19.785479,142.480743 18.238897,148.305969 
	C15.881564,157.184921 16.617535,158.186569 25.476433,160.460175 
	C30.480371,161.744415 32.546604,163.886383 32.217731,169.377289 
	C31.670824,178.508530 32.539021,179.237106 41.568783,179.011444 
	C46.894497,178.878342 49.851192,180.614471 51.056892,186.074005 
	C52.921165,194.515610 55.107925,195.610291 63.194050,193.370621 
	C70.192497,191.432236 70.648178,191.626709 74.105263,198.027084 
	C77.636131,204.564056 80.601006,205.398422 86.887047,201.624054 
	C93.295479,197.776199 93.587433,197.809204 98.711678,202.960587 
	C104.386177,208.665131 107.548538,208.656235 113.384850,202.919235 
	C118.574394,197.818024 118.806351,197.794052 125.220245,201.694397 
	C131.373520,205.436264 133.540909,204.961899 137.497498,199.007385 
	C142.447678,191.557541 142.447678,191.557541 150.879517,194.256851 
	C155.424347,195.711792 159.251160,193.735931 160.608185,189.145523 
	C161.075821,187.563614 161.322220,185.916321 161.909622,183.524231 
z"/>
<path fill="#BCBCBC" opacity="1.000000" stroke="none" 
	d="
M161.789658,183.911560 
	C161.322220,185.916321 161.075821,187.563614 160.608185,189.145523 
	C159.251160,193.735931 155.424347,195.711792 150.879517,194.256851 
	C142.447678,191.557541 142.447678,191.557541 137.497498,199.007385 
	C133.540909,204.961899 131.373520,205.436264 125.220245,201.694397 
	C118.806351,197.794052 118.574394,197.818024 113.384850,202.919235 
	C107.548538,208.656235 104.386177,208.665131 98.711678,202.960587 
	C93.587433,197.809204 93.295479,197.776199 86.887047,201.624054 
	C80.601006,205.398422 77.636131,204.564056 74.105263,198.027084 
	C70.648178,191.626709 70.192497,191.432236 63.194050,193.370621 
	C55.107925,195.610291 52.921165,194.515610 51.056892,186.074005 
	C49.851192,180.614471 46.894497,178.878342 41.568783,179.011444 
	C32.539021,179.237106 31.670824,178.508530 32.217731,169.377289 
	C32.546604,163.886383 30.480371,161.744415 25.476433,160.460175 
	C16.617535,158.186569 15.881564,157.184921 18.238897,148.305969 
	C19.785479,142.480743 18.039454,139.476898 13.002401,136.852921 
	C6.383777,133.405060 6.079469,131.533478 9.561490,125.098427 
	C13.684729,117.478340 13.684727,117.478348 7.726411,111.179382 
	C2.870060,106.045380 2.909127,103.849663 8.398955,98.857590 
	C12.101290,95.490929 13.699479,92.633682 10.232614,87.562180 
	C5.235118,80.251610 6.282470,77.282890 14.387547,73.089218 
	C18.542524,70.939377 19.779356,68.774368 18.425873,64.120445 
	C15.648132,54.569244 16.729616,52.736946 26.425146,50.576584 
	C31.039555,49.548397 32.582352,47.313290 32.103760,42.953861 
	C31.941097,41.472183 31.959385,39.945087 32.107048,38.459827 
	C32.501015,34.497112 34.270657,31.858997 38.728149,31.970016 
	C40.559731,32.015633 42.394524,31.980892 44.226826,31.938377 
	C47.552017,31.861221 49.606941,30.856905 50.338203,26.934328 
	C52.117146,17.391855 55.117889,15.598134 64.577065,18.243479 
	C68.950806,19.466637 71.385719,19.051180 73.652763,14.489405 
	C77.366783,7.016029 80.049561,4.966160 88.033379,10.225555 
	C92.671844,13.281176 95.745865,12.578376 99.355095,8.453156 
	C104.937302,2.072898 106.943382,2.075368 112.579971,8.292119 
	C116.283630,12.376986 119.542625,12.829959 124.278893,10.096931 
	C132.300888,5.467903 133.802917,5.895322 138.309479,13.881401 
	C140.866577,18.412819 143.699905,19.663015 148.789078,18.094692 
	C156.966324,15.574729 159.338470,16.986614 161.047592,25.399353 
	C162.139511,30.774021 164.715317,32.353024 169.968979,32.146717 
	C179.245361,31.782431 180.343613,32.788273 179.852295,41.892490 
	C179.558609,47.334377 181.636261,49.547230 186.596786,50.916447 
	C195.453598,53.361126 196.437881,55.331688 193.643906,64.212616 
	C192.231171,68.703178 193.143875,71.290184 197.621399,73.191383 
	C205.273041,76.440338 206.281525,80.154877 202.044571,87.191696 
	C198.193588,93.587532 198.193573,93.587517 203.475998,99.021957 
	C209.484192,105.203033 209.784790,107.019363 203.301819,112.754128 
	C198.786865,116.748016 199.147308,120.145180 201.956100,124.669182 
	C206.140198,131.408386 205.574738,133.208771 198.926712,137.521118 
	C192.302719,141.817871 192.302734,141.817871 194.148407,149.277191 
	C195.955078,156.578888 194.848145,158.494812 187.684052,160.466248 
	C180.015640,162.576492 180.015625,162.576492 179.984467,170.061264 
	C179.949768,178.390900 178.523956,179.765457 170.066483,179.866028 
	C166.857422,179.904190 163.099442,178.905258 161.789658,183.911560 
M13.331105,80.096390 
	C13.781905,81.934769 13.915961,83.930138 14.736326,85.585358 
	C19.150862,94.492455 19.294317,94.915962 12.216084,101.954857 
	C9.333364,104.821541 9.685528,106.607880 12.391164,109.278053 
	C19.373795,116.169205 19.523478,117.042191 14.617257,125.463585 
	C12.241015,129.542343 12.826281,131.655807 17.044960,134.024429 
	C24.706530,138.326111 25.703180,140.862427 22.971903,148.648087 
	C21.230307,153.612595 22.675335,155.278763 27.508009,156.310623 
	C35.599663,158.038361 36.874039,159.968475 36.884975,167.738266 
	C36.895256,175.039490 36.895256,175.039551 44.320431,175.048431 
	C44.986870,175.049225 45.657295,175.096436 46.319115,175.041183 
	C51.520821,174.606888 53.876198,177.546478 54.874989,182.169556 
	C56.521332,189.789902 57.457218,190.450058 65.015862,187.927155 
	C69.293274,186.499451 72.538712,187.475082 75.159737,190.878738 
	C76.370163,192.450607 77.499405,194.159897 78.277275,195.973373 
	C79.627151,199.120392 81.488098,199.338211 84.129936,197.607285 
	C85.376289,196.790665 86.806183,196.260117 88.114876,195.531601 
	C92.824608,192.909836 96.996407,193.435257 100.716049,197.461166 
	C102.266121,199.138885 104.013802,200.634033 105.922859,202.451355 
	C107.450157,201.074661 108.664345,199.992844 109.864838,198.896042 
	C116.631020,192.714172 118.553925,192.259949 126.499619,197.074326 
	C130.524185,199.512833 132.338577,198.961136 134.380280,194.786957 
	C138.255859,186.863525 140.090164,186.167679 148.553772,188.499786 
	C152.914398,189.701340 155.614548,189.779556 156.488693,184.025085 
	C157.565674,176.935257 159.674973,175.707291 167.189178,174.930054 
	C168.341995,174.810791 169.499649,174.243561 170.614578,174.342010 
	C174.511719,174.686127 175.273895,172.782440 175.238464,169.267395 
	C175.141403,159.644653 175.700073,158.684387 184.538696,156.278183 
	C189.303040,154.981155 190.496216,153.041824 189.091980,148.253510 
	C186.628006,139.851608 187.322067,138.309677 194.874146,134.264053 
	C199.064270,132.019409 199.695480,129.676865 197.304443,125.654945 
	C192.435928,117.465683 192.542770,116.065712 199.176315,109.768494 
	C202.508331,106.605415 202.603973,104.520409 199.170471,101.344887 
	C192.897949,95.543716 192.846176,93.973289 196.701111,86.777908 
	C200.037781,80.549858 200.037766,80.549873 193.647659,76.610870 
	C187.669205,72.925606 187.130203,71.634590 188.695099,64.780525 
	C188.842850,64.133415 188.864548,63.441639 189.105209,62.834156 
	C190.932449,58.221958 189.362091,56.214615 184.503006,55.025135 
	C175.712646,52.873299 175.210129,51.810818 175.172012,43.611095 
	C175.140778,36.890621 175.140778,36.890625 168.386429,36.853691 
	C160.514771,36.810646 159.015442,35.685318 156.735718,28.109091 
	C154.713318,21.388000 154.713333,21.387989 147.550385,23.148678 
	C140.315475,24.927055 139.057724,24.423140 135.305557,18.242672 
	C131.518677,12.005062 131.518692,12.005052 125.096512,15.266318 
	C118.918770,18.403456 115.572388,18.016256 110.916489,13.099391 
	C109.454491,11.555439 108.685158,9.355595 107.598778,7.455961 
	C105.147552,9.471879 104.446823,9.905786 103.901085,10.485585 
	C95.830078,19.060404 93.886963,19.732948 84.462952,13.686445 
	C81.351326,11.690009 79.777786,13.527742 78.136429,16.094547 
	C72.528214,24.864862 72.362328,25.166925 62.535892,22.615366 
	C57.709564,21.362144 56.554440,22.956432 55.537334,27.165377 
	C53.390972,36.047375 52.100368,36.821964 43.290375,36.853298 
	C36.904430,36.876011 36.904430,36.876011 36.887871,43.446003 
	C36.866718,51.839127 36.076889,53.290634 27.800699,54.957970 
	C22.574501,56.010853 21.082590,58.248703 22.965210,63.057648 
	C23.326149,63.979630 23.479156,64.983932 23.849957,65.900978 
	C25.403080,69.742104 24.262640,72.681915 20.912428,74.897957 
	C18.560255,76.453835 16.187265,77.978241 13.331105,80.096390 
z"/>
<path fill="#FFFFFF" opacity="1.000000" stroke="none" 
	d="
M13.577338,79.806549 
	C16.187265,77.978241 18.560255,76.453835 20.912428,74.897957 
	C24.262640,72.681915 25.403080,69.742104 23.849957,65.900978 
	C23.479156,64.983932 23.326149,63.979630 22.965210,63.057648 
	C21.082590,58.248703 22.574501,56.010853 27.800699,54.957970 
	C36.076889,53.290634 36.866718,51.839127 36.887871,43.446003 
	C36.904430,36.876011 36.904430,36.876011 43.290375,36.853298 
	C52.100368,36.821964 53.390972,36.047375 55.537334,27.165377 
	C56.554440,22.956432 57.709564,21.362144 62.535892,22.615366 
	C72.362328,25.166925 72.528214,24.864862 78.136429,16.094547 
	C79.777786,13.527742 81.351326,11.690009 84.462952,13.686445 
	C93.886963,19.732948 95.830078,19.060404 103.901085,10.485585 
	C104.446823,9.905786 105.147552,9.471879 107.598778,7.455961 
	C108.685158,9.355595 109.454491,11.555439 110.916489,13.099391 
	C115.572388,18.016256 118.918770,18.403456 125.096512,15.266318 
	C131.518692,12.005052 131.518677,12.005062 135.305557,18.242672 
	C139.057724,24.423140 140.315475,24.927055 147.550385,23.148678 
	C154.713333,21.387989 154.713318,21.388000 156.735718,28.109091 
	C159.015442,35.685318 160.514771,36.810646 168.386429,36.853691 
	C175.140778,36.890625 175.140778,36.890621 175.172012,43.611095 
	C175.210129,51.810818 175.712646,52.873299 184.503006,55.025135 
	C189.362091,56.214615 190.932449,58.221958 189.105209,62.834156 
	C188.864548,63.441639 188.842850,64.133415 188.695099,64.780525 
	C187.130203,71.634590 187.669205,72.925606 193.647659,76.610870 
	C200.037766,80.549873 200.037781,80.549858 196.701111,86.777908 
	C192.846176,93.973289 192.897949,95.543716 199.170471,101.344887 
	C202.603973,104.520409 202.508331,106.605415 199.176315,109.768494 
	C192.542770,116.065712 192.435928,117.465683 197.304443,125.654945 
	C199.695480,129.676865 199.064270,132.019409 194.874146,134.264053 
	C187.322067,138.309677 186.628006,139.851608 189.091980,148.253510 
	C190.496216,153.041824 189.303040,154.981155 184.538696,156.278183 
	C175.700073,158.684387 175.141403,159.644653 175.238464,169.267395 
	C175.273895,172.782440 174.511719,174.686127 170.614578,174.342010 
	C169.499649,174.243561 168.341995,174.810791 167.189178,174.930054 
	C159.674973,175.707291 157.565674,176.935257 156.488693,184.025085 
	C155.614548,189.779556 152.914398,189.701340 148.553772,188.499786 
	C140.090164,186.167679 138.255859,186.863525 134.380280,194.786957 
	C132.338577,198.961136 130.524185,199.512833 126.499619,197.074326 
	C118.553925,192.259949 116.631020,192.714172 109.864838,198.896042 
	C108.664345,199.992844 107.450157,201.074661 105.922859,202.451355 
	C104.013802,200.634033 102.266121,199.138885 100.716049,197.461166 
	C96.996407,193.435257 92.824608,192.909836 88.114876,195.531601 
	C86.806183,196.260117 85.376289,196.790665 84.129936,197.607285 
	C81.488098,199.338211 79.627151,199.120392 78.277275,195.973373 
	C77.499405,194.159897 76.370163,192.450607 75.159737,190.878738 
	C72.538712,187.475082 69.293274,186.499451 65.015862,187.927155 
	C57.457218,190.450058 56.521332,189.789902 54.874989,182.169556 
	C53.876198,177.546478 51.520821,174.606888 46.319115,175.041183 
	C45.657295,175.096436 44.986870,175.049225 44.320431,175.048431 
	C36.895256,175.039551 36.895256,175.039490 36.884975,167.738266 
	C36.874039,159.968475 35.599663,158.038361 27.508009,156.310623 
	C22.675335,155.278763 21.230307,153.612595 22.971903,148.648087 
	C25.703180,140.862427 24.706530,138.326111 17.044960,134.024429 
	C12.826281,131.655807 12.241015,129.542343 14.617257,125.463585 
	C19.523478,117.042191 19.373795,116.169205 12.391164,109.278053 
	C9.685528,106.607880 9.333364,104.821541 12.216084,101.954857 
	C19.294317,94.915962 19.150862,94.492455 14.736326,85.585358 
	C13.915961,83.930138 13.781905,81.934769 13.577338,79.806549 
z"/>
</svg>