<?xml version="1.0" encoding="UTF-8"?>
<svg xmlns="http://www.w3.org/2000/svg" xmlns:xlink="http://www.w3.org/1999/xlink" width="635px" height="700px" viewBox="0 0 635 698" version="1.1">
<g id="surface1">
<path style=" stroke:none;fill-rule:nonzero;fill:rgb(0%,0%,0%);fill-opacity:1;" d="M 477.28125 181.164062 C 490.433594 196.179688 490.433594 196.179688 514.269531 196.488281 C 518.5625 200.972656 520.234375 206.953125 520.164062 212.734375 C 519.996094 227.03125 527.253906 234.722656 540.324219 238.117188 C 552.933594 241.390625 555.289062 249.847656 551.476562 260.890625 C 547.140625 273.441406 550.199219 283.160156 562.035156 289.246094 C 575.703125 296.277344 577.738281 306.496094 570.183594 318.671875 C 563.902344 328.800781 565.121094 336.695312 573.25 345.160156 C 582.722656 355.023438 584.597656 366.171875 573.75 376.523438 C 565.265625 384.617188 564.164062 393.371094 569.507812 403.316406 C 576.601562 416.519531 575.304688 426.929688 561.015625 434.753906 C 551.421875 440.007812 546.761719 448.152344 551.398438 459.675781 C 556.625 472.679688 552.902344 481.871094 538.597656 484.835938 C 525.34375 487.585938 519.601562 495.476562 519.964844 508.636719 C 520.339844 522.171875 514.980469 530.046875 500.039062 528.875 C 486.746094 527.828125 479.039062 534.5625 475.726562 547.195312 C 472.433594 559.746094 466.644531 566.714844 451.542969 561.472656 C 439.027344 557.128906 428.351562 562.234375 421.339844 574.109375 C 415.816406 583.460938 407.957031 586.890625 397.992188 580.914062 C 384.441406 572.789062 372.195312 575.800781 362.007812 586.101562 C 353.308594 594.902344 346.335938 593.660156 338.570312 585.75 C 328.511719 575.507812 317.613281 573.550781 304.621094 581.03125 C 294.609375 586.796875 285.035156 584.730469 279.253906 574.15625 C 272.457031 561.726562 262.925781 557.425781 249.597656 562.097656 C 237.347656 566.394531 230.425781 560.929688 227.214844 549.714844 C 222.875 534.582031 212.566406 528.460938 197.59375 529.011719 C 185.441406 529.457031 180.773438 522.964844 181.433594 511.847656 C 182.25 498.152344 177.140625 488.765625 163.355469 485.148438 C 152.394531 482.273438 148.398438 474.554688 149.871094 464.195312 C 152.050781 448.917969 148.597656 436.960938 133.859375 429.457031 C 128.230469 426.589844 123.722656 420.246094 127.195312 414.652344 C 140.636719 392.976562 133.175781 375.816406 113.777344 359.296875 C 134.648438 346.226562 140.960938 330.824219 127.921875 310.378906 C 123.191406 302.964844 128.3125 296.136719 135.199219 292.273438 C 148.414062 284.863281 153.96875 274.988281 149.914062 259.53125 C 147.304688 249.585938 150.695312 240.949219 161.921875 238.042969 C 175.347656 234.570312 182.132812 226.597656 181.371094 212.394531 C 180.597656 197.945312 190.871094 194.335938 202.039062 193.972656 C 215.277344 193.542969 223.03125 188.253906 225.796875 175.097656 C 228.355469 162.902344 237.453125 159.75 248.40625 161.339844 C 262.828125 163.429688 274.351562 160.875 281.480469 146.425781 C 286.105469 137.054688 294.640625 135.355469 303.347656 140.371094 C 316.648438 148.03125 328.355469 147.3125 339.226562 136.222656 C 348.164062 127.101562 357.015625 128.960938 365.085938 137.21875 C 374.910156 147.261719 385.3125 148.375 397.179688 141.101562 C 408.917969 133.902344 417.667969 139.375 423.957031 149.183594 C 430.507812 159.398438 439.15625 163.6875 450.769531 161.296875 C 466.445312 158.070312 474.328125 164.917969 477.28125 181.164062 Z M 477.28125 181.164062 "/>
</g>
</svg>
